<svg width="267" height="48" viewBox="0 0 267 48" fill="none" xmlns="http://www.w3.org/2000/svg">
<path d="M19.2188 13.5104C19.2188 14.5 19.0627 15.436 18.7506 16.3184C18.4385 17.2007 17.9211 17.9635 17.1983 18.6068C16.4756 19.25 15.6132 19.5716 14.6112 19.5716C13.3628 19.5716 12.2294 19.0974 11.2109 18.1491C10.1925 17.2007 9.4369 16.0833 8.94411 14.7969C8.45132 13.5104 8.20493 12.2652 8.20493 11.0612C8.20493 10.0716 8.36098 9.13563 8.67308 8.25326C8.98518 7.37088 9.5026 6.60807 10.2254 5.96484C10.9481 5.32161 11.8105 5 12.8125 5C14.0773 5 15.2148 5.47418 16.2251 6.42253C17.2353 7.37088 17.9868 8.48416 18.4796 9.76237C18.9724 11.0406 19.2188 12.2899 19.2188 13.5104ZM10.7921 25.4596C10.7921 26.7791 10.4471 27.9253 9.75721 28.8984C9.06731 29.8715 8.08994 30.3581 6.82512 30.3581C5.57672 30.3581 4.41456 29.9004 3.33864 28.985C2.26272 28.0697 1.4373 26.9688 0.86238 25.6823C0.28746 24.3958 0 23.1424 0 21.9219C0 20.6024 0.344952 19.452 1.03486 18.4707C1.72476 17.4894 2.70212 16.9987 3.96695 16.9987C5.21534 16.9987 6.3775 17.4564 7.45343 18.3717C8.52935 19.2871 9.35477 20.3921 9.92969 21.6868C10.5046 22.9816 10.7921 24.2391 10.7921 25.4596ZM20.5 24.7917C22.4383 24.7917 24.5327 25.5957 26.7831 27.2038C29.0335 28.8118 30.9143 30.7663 32.4255 33.0671C33.9367 35.3678 34.6923 37.4666 34.6923 39.3633C34.6923 40.122 34.5527 40.7528 34.2734 41.2559C33.9942 41.7589 33.5959 42.13 33.0784 42.3691C32.561 42.6083 32.0312 42.7732 31.4892 42.8639C30.9471 42.9546 30.3229 43 29.6166 43C28.4996 43 26.9596 42.6289 24.9967 41.8867C23.0338 41.1445 21.5349 40.7734 20.5 40.7734C19.4159 40.7734 17.8348 41.1404 15.7569 41.8744C13.679 42.6083 12.0323 42.9753 10.8167 42.9753C7.8107 42.9753 6.30769 41.7713 6.30769 39.3633C6.30769 37.9449 6.76763 36.3657 7.6875 34.6257C8.60737 32.8856 9.75311 31.2982 11.1247 29.8633C12.4963 28.4284 14.0363 27.2244 15.7446 26.2513C17.4529 25.2782 19.0381 24.7917 20.5 24.7917ZM26.3888 19.5716C25.3868 19.5716 24.5244 19.25 23.8017 18.6068C23.0789 17.9635 22.5615 17.2007 22.2494 16.3184C21.9373 15.436 21.7812 14.5 21.7812 13.5104C21.7812 12.2899 22.0276 11.0406 22.5204 9.76237C23.0132 8.48416 23.7647 7.37088 24.7749 6.42253C25.7852 5.47418 26.9227 5 28.1875 5C29.1895 5 30.0519 5.32161 30.7746 5.96484C31.4974 6.60807 32.0148 7.37088 32.3269 8.25326C32.639 9.13563 32.7951 10.0716 32.7951 11.0612C32.7951 12.2652 32.5487 13.5104 32.0559 14.7969C31.5631 16.0833 30.8075 17.2007 29.7891 18.1491C28.7706 19.0974 27.6372 19.5716 26.3888 19.5716ZM37.0331 16.9987C38.2979 16.9987 39.2752 17.4894 39.9651 18.4707C40.655 19.452 41 20.6024 41 21.9219C41 23.1424 40.7125 24.3958 40.1376 25.6823C39.5627 26.9687 38.7373 28.0697 37.6614 28.985C36.5854 29.9004 35.4233 30.3581 34.1749 30.3581C32.9101 30.3581 31.9327 29.8715 31.2428 28.8984C30.5529 27.9253 30.2079 26.7791 30.2079 25.4596C30.2079 24.2391 30.4954 22.9816 31.0703 21.6868C31.6452 20.3921 32.4707 19.2871 33.5466 18.3717C34.6225 17.4564 35.7847 16.9987 37.0331 16.9987Z" fill="#492C0E"/>
<path d="M60.9641 8.07104C60.366 8.07104 59.8305 8.17928 59.3577 8.39575C58.8905 8.61222 58.4946 8.92554 58.1699 9.33569C57.8452 9.74015 57.5974 10.2329 57.4265 10.814C57.2556 11.3893 57.1702 12.0387 57.1702 12.7622C57.1702 13.7306 57.3069 14.5652 57.5803 15.2659C57.8538 15.9609 58.2696 16.4963 58.8279 16.8723C59.3861 17.2426 60.0925 17.4277 60.947 17.4277C61.4768 17.4277 61.9924 17.3765 62.4937 17.2739C62.995 17.1714 63.5133 17.0318 64.0488 16.8552V18.5984C63.5418 18.7978 63.0291 18.943 62.5107 19.0342C61.9924 19.1253 61.3942 19.1709 60.7163 19.1709C59.4403 19.1709 58.3807 18.906 57.5376 18.3762C56.7002 17.8464 56.0736 17.1002 55.6577 16.1375C55.2476 15.1747 55.0425 14.0468 55.0425 12.7537C55.0425 11.808 55.1735 10.9421 55.4355 10.156C55.6976 9.36987 56.0793 8.69198 56.5806 8.12231C57.0819 7.54696 57.7 7.10547 58.4348 6.79785C59.1754 6.48454 60.0213 6.32788 60.9727 6.32788C61.5993 6.32788 62.2145 6.39909 62.8184 6.5415C63.4279 6.67822 63.9919 6.87476 64.5103 7.1311L63.7925 8.823C63.3595 8.61792 62.9067 8.44132 62.4338 8.29321C61.961 8.1451 61.4711 8.07104 60.9641 8.07104ZM71.782 6.31934C72.0839 6.31934 72.3944 6.33643 72.7134 6.37061C73.0381 6.39909 73.3286 6.44466 73.585 6.50732H80.6602V8.2334H75.6699V11.6257H80.3354V13.3433H75.6699V17.2654H80.6602V19H73.6021C73.3514 19.0456 73.0637 19.0826 72.739 19.1111C72.42 19.1453 72.1095 19.1624 71.8076 19.1624C70.5259 19.1624 69.4635 18.8946 68.6204 18.3591C67.783 17.8236 67.1592 17.0717 66.749 16.1033C66.3389 15.1348 66.1338 14.0069 66.1338 12.7195C66.1338 11.4264 66.3389 10.3013 66.749 9.34424C67.1592 8.38721 67.7801 7.6438 68.6118 7.11401C69.4492 6.58423 70.5059 6.31934 71.782 6.31934ZM71.8418 8.0625C71.2266 8.0625 70.6939 8.17074 70.2439 8.38721C69.7939 8.59798 69.4207 8.9056 69.1245 9.31006C68.834 9.71452 68.6147 10.2044 68.4666 10.7798C68.3241 11.3551 68.2529 12.0074 68.2529 12.7366C68.2529 13.6993 68.3811 14.531 68.6375 15.2317C68.8938 15.9324 69.284 16.4736 69.8081 16.8552C70.3379 17.2312 71.0101 17.4192 71.8247 17.4192C72.1551 17.4192 72.4827 17.3936 72.8074 17.3423C73.1321 17.291 73.4055 17.217 73.6277 17.1201V8.36157C73.4055 8.25903 73.1349 8.18498 72.8159 8.1394C72.4969 8.08813 72.1722 8.0625 71.8418 8.0625ZM93.1528 6.50732V14.5908C93.1528 15.4624 92.9677 16.2428 92.5974 16.9321C92.2328 17.6214 91.6803 18.1683 90.9397 18.5728C90.1991 18.9715 89.2677 19.1709 88.1455 19.1709C86.5448 19.1709 85.3257 18.7522 84.4883 17.9148C83.6566 17.0717 83.2407 15.9523 83.2407 14.5566V6.50732H85.2915V14.3772C85.2915 15.4197 85.5365 16.1887 86.0264 16.6843C86.5163 17.1799 87.2483 17.4277 88.2224 17.4277C88.8946 17.4277 89.4415 17.311 89.863 17.0774C90.2903 16.8381 90.6036 16.4906 90.803 16.0349C91.0081 15.5735 91.1106 15.0181 91.1106 14.3687V6.50732H93.1528ZM99.8606 6.50732C100.937 6.50732 101.826 6.63835 102.527 6.90039C103.233 7.16243 103.757 7.5612 104.099 8.09668C104.446 8.63216 104.62 9.31291 104.62 10.1389C104.62 10.7542 104.506 11.2782 104.278 11.7112C104.05 12.1441 103.751 12.503 103.381 12.7878C103.011 13.0727 102.615 13.3005 102.193 13.4714L105.74 19H103.424L100.407 13.9927H98.3994V19H96.3486V6.50732H99.8606ZM99.7239 8.21631H98.3994V12.3008H99.8179C100.769 12.3008 101.458 12.1242 101.886 11.771C102.319 11.4178 102.535 10.8966 102.535 10.2073C102.535 9.48381 102.304 8.97111 101.843 8.66919C101.387 8.36727 100.681 8.21631 99.7239 8.21631ZM122.214 12.634C122.214 14.0411 121.952 15.2174 121.428 16.1631C120.904 17.103 120.143 17.8123 119.146 18.2908C118.15 18.7636 116.948 19 115.541 19H112.071V6.50732H115.917C117.21 6.50732 118.326 6.74089 119.266 7.20801C120.206 7.66943 120.932 8.35588 121.445 9.26733C121.958 10.1731 122.214 11.2953 122.214 12.634ZM120.078 12.6938C120.078 11.6685 119.916 10.8254 119.591 10.1646C119.272 9.50374 118.799 9.01383 118.172 8.69482C117.551 8.37012 116.785 8.20776 115.874 8.20776H114.122V17.2825H115.575C117.084 17.2825 118.212 16.8979 118.958 16.1289C119.705 15.3599 120.078 14.2148 120.078 12.6938ZM131.981 19H124.906V6.50732H131.981V8.2334H126.957V11.6257H131.665V13.3433H126.957V17.2654H131.981V19ZM59.2722 30.5073C60.8844 30.5073 62.0607 30.8377 62.8013 31.4985C63.5418 32.1593 63.9121 33.085 63.9121 34.2756C63.9121 34.8168 63.8267 35.3324 63.6558 35.8223C63.4906 36.3065 63.2171 36.7366 62.8354 37.1125C62.4538 37.4828 61.9496 37.7762 61.323 37.9927C60.7021 38.2091 59.9359 38.3174 59.0244 38.3174H57.6914V43H55.6406V30.5073H59.2722ZM59.1355 32.2078H57.6914V36.6084H58.8108C59.4545 36.6084 60.0014 36.5343 60.4514 36.3862C60.9014 36.2324 61.2432 35.9903 61.4768 35.6599C61.7104 35.3295 61.8271 34.8937 61.8271 34.3525C61.8271 33.6291 61.6078 33.0907 61.1692 32.7375C60.7362 32.3844 60.0583 32.2078 59.1355 32.2078ZM77.4985 36.7366C77.4985 37.6993 77.3761 38.5766 77.1311 39.3684C76.8918 40.1545 76.5301 40.8324 76.0459 41.4021C75.5617 41.9661 74.955 42.4019 74.2258 42.7095C73.4967 43.0171 72.6422 43.1709 71.6624 43.1709C70.6654 43.1709 69.7996 43.0171 69.0647 42.7095C68.3355 42.4019 67.7288 41.9632 67.2446 41.3936C66.7661 40.8239 66.4072 40.1431 66.168 39.3513C65.9287 38.5595 65.8091 37.6822 65.8091 36.7195C65.8091 35.432 66.0199 34.3098 66.4414 33.3528C66.8687 32.3901 67.5152 31.6438 68.3811 31.114C69.2527 30.5785 70.3521 30.3108 71.6794 30.3108C72.9783 30.3108 74.0578 30.5757 74.918 31.1055C75.7782 31.6353 76.4219 32.3815 76.8491 33.3442C77.2821 34.3013 77.4985 35.432 77.4985 36.7366ZM67.9624 36.7366C67.9624 37.6993 68.0934 38.5339 68.3555 39.2402C68.6175 39.9409 69.0191 40.4821 69.5603 40.8638C70.1072 41.2397 70.8079 41.4277 71.6624 41.4277C72.5225 41.4277 73.2232 41.2397 73.7644 40.8638C74.3056 40.4821 74.7043 39.9409 74.9607 39.2402C75.217 38.5339 75.3452 37.6993 75.3452 36.7366C75.3452 35.2725 75.0518 34.1275 74.4651 33.3015C73.884 32.4698 72.9555 32.054 71.6794 32.054C70.825 32.054 70.1214 32.2419 69.5688 32.6179C69.022 32.9939 68.6175 33.5322 68.3555 34.2329C68.0934 34.9279 67.9624 35.7625 67.9624 36.7366ZM85.5735 43L81.9761 32.5667H81.8992C81.9163 32.8002 81.9362 33.1192 81.959 33.5237C81.9818 33.9281 82.0017 34.3611 82.0188 34.8225C82.0359 35.2839 82.0444 35.7254 82.0444 36.147V43H80.1816V30.5073H83.0613L86.522 40.4792H86.5732L90.1536 30.5073H93.0247V43H91.0679V36.0444C91.0679 35.6628 91.0736 35.2498 91.085 34.8054C91.1021 34.3611 91.1191 33.9395 91.1362 33.5408C91.159 33.142 91.1761 32.823 91.1875 32.5837H91.1191L87.385 43H85.5735ZM103.39 43H96.3145V30.5073H103.39V32.2334H98.3652V35.6257H103.073V37.3433H98.3652V41.2654H103.39V43ZM102.903 26.551V26.7219C102.766 26.8871 102.581 27.0865 102.347 27.3201C102.114 27.5479 101.86 27.79 101.587 28.0464C101.313 28.297 101.043 28.5391 100.775 28.7727C100.507 29.0006 100.265 29.1943 100.049 29.3538H98.707V29.1316C98.895 28.9151 99.1029 28.6559 99.3308 28.354C99.5644 28.0521 99.7922 27.7416 100.014 27.4226C100.242 27.1036 100.433 26.8131 100.587 26.551H102.903ZM109.602 30.5073C110.678 30.5073 111.567 30.6383 112.268 30.9004C112.974 31.1624 113.498 31.5612 113.84 32.0967C114.188 32.6322 114.361 33.3129 114.361 34.1389C114.361 34.7542 114.247 35.2782 114.02 35.7112C113.792 36.1441 113.493 36.503 113.122 36.7878C112.752 37.0727 112.356 37.3005 111.935 37.4714L115.481 43H113.165L110.149 37.9927H108.141V43H106.09V30.5073H109.602ZM109.465 32.2163H108.141V36.3008H109.559C110.51 36.3008 111.2 36.1242 111.627 35.771C112.06 35.4178 112.276 34.8966 112.276 34.2073C112.276 33.4838 112.046 32.9711 111.584 32.6692C111.128 32.3673 110.422 32.2163 109.465 32.2163ZM125.008 43L123.786 39.5308H119.01L117.788 43H115.626L120.274 30.4561H122.547L127.187 43H125.008ZM123.257 37.7705L122.069 34.3525C122.023 34.2044 121.958 33.9965 121.872 33.7288C121.787 33.4553 121.701 33.179 121.616 32.8999C121.531 32.6151 121.459 32.3758 121.402 32.1821C121.345 32.4157 121.274 32.6777 121.189 32.9683C121.109 33.2531 121.029 33.5208 120.949 33.7715C120.875 34.0221 120.818 34.2158 120.779 34.3525L119.582 37.7705H123.257ZM139.261 43H136.74L130.622 33.0281H130.545C130.568 33.3642 130.588 33.7202 130.605 34.0962C130.628 34.4722 130.645 34.8595 130.656 35.2583C130.674 35.6571 130.688 36.0615 130.699 36.4717V43H128.836V30.5073H131.34L137.45 40.4109H137.51C137.498 40.1204 137.484 39.7871 137.467 39.4111C137.45 39.0352 137.433 38.6478 137.416 38.249C137.404 37.8446 137.396 37.4543 137.39 37.0784V30.5073H139.261V43ZM142.542 43V30.5073H144.593V43H142.542ZM154.967 43H147.892V30.5073H154.967V32.2334H149.942V35.6257H154.651V37.3433H149.942V41.2654H154.967V43ZM168.092 43H165.571L159.453 33.0281H159.376C159.399 33.3642 159.419 33.7202 159.436 34.0962C159.459 34.4722 159.476 34.8595 159.487 35.2583C159.504 35.6571 159.518 36.0615 159.53 36.4717V43H157.667V30.5073H160.171L166.28 40.4109H166.34C166.329 40.1204 166.314 39.7871 166.297 39.4111C166.28 39.0352 166.263 38.6478 166.246 38.249C166.235 37.8446 166.226 37.4543 166.22 37.0784V30.5073H168.092V43ZM175.919 30.5073H179.636C181.248 30.5073 182.464 30.7409 183.285 31.208C184.105 31.6751 184.515 32.4812 184.515 33.6262C184.515 34.1047 184.43 34.5377 184.259 34.925C184.094 35.3067 183.851 35.6229 183.532 35.8735C183.213 36.1185 182.82 36.2837 182.353 36.3691V36.4546C182.837 36.54 183.268 36.691 183.644 36.9075C184.025 37.1239 184.324 37.4344 184.541 37.8389C184.763 38.2433 184.874 38.7674 184.874 39.4111C184.874 40.1745 184.692 40.8239 184.327 41.3594C183.968 41.8949 183.453 42.3022 182.781 42.5813C182.114 42.8604 181.322 43 180.405 43H175.919V30.5073ZM177.97 35.6599H179.935C180.864 35.6599 181.507 35.509 181.866 35.207C182.225 34.9051 182.405 34.4636 182.405 33.8826C182.405 33.2901 182.191 32.8629 181.764 32.6008C181.342 32.3388 180.67 32.2078 179.747 32.2078H177.97V35.6599ZM177.97 37.3176V41.2825H180.132C181.089 41.2825 181.761 41.0973 182.148 40.7271C182.536 40.3568 182.729 39.8555 182.729 39.2231C182.729 38.8358 182.641 38.4997 182.464 38.2148C182.293 37.93 182.011 37.7107 181.618 37.5569C181.225 37.3974 180.696 37.3176 180.029 37.3176H177.97ZM187.455 43V30.5073H189.505V43H187.455ZM197.845 36.2153H202.511V42.4873C201.856 42.7038 201.178 42.8718 200.477 42.9915C199.776 43.1111 198.99 43.1709 198.119 43.1709C196.848 43.1709 195.772 42.9202 194.889 42.4189C194.011 41.9119 193.345 41.1799 192.889 40.2229C192.433 39.2602 192.206 38.1009 192.206 36.7451C192.206 35.4406 192.459 34.3098 192.966 33.3528C193.473 32.3901 194.211 31.6466 195.179 31.1226C196.148 30.5928 197.321 30.3279 198.7 30.3279C199.378 30.3279 200.033 30.3962 200.665 30.533C201.303 30.664 201.887 30.8463 202.417 31.0798L201.699 32.7717C201.277 32.5723 200.805 32.4043 200.281 32.2676C199.756 32.1309 199.212 32.0625 198.648 32.0625C197.754 32.0625 196.982 32.2562 196.333 32.6436C195.689 33.0309 195.193 33.5778 194.846 34.2842C194.498 34.9849 194.325 35.8137 194.325 36.7708C194.325 37.6993 194.464 38.5139 194.743 39.2146C195.023 39.9153 195.458 40.4622 196.051 40.8552C196.649 41.2426 197.421 41.4363 198.366 41.4363C198.839 41.4363 199.241 41.4106 199.571 41.3594C199.902 41.3081 200.206 41.2511 200.486 41.1885V37.967H197.845V36.2153ZM216.593 36.7366C216.593 37.6993 216.47 38.5766 216.225 39.3684C215.986 40.1545 215.624 40.8324 215.14 41.4021C214.656 41.9661 214.049 42.4019 213.32 42.7095C212.591 43.0171 211.736 43.1709 210.757 43.1709C209.76 43.1709 208.894 43.0171 208.159 42.7095C207.43 42.4019 206.823 41.9632 206.339 41.3936C205.86 40.8239 205.501 40.1431 205.262 39.3513C205.023 38.5595 204.903 37.6822 204.903 36.7195C204.903 35.432 205.114 34.3098 205.536 33.3528C205.963 32.3901 206.609 31.6438 207.475 31.114C208.347 30.5785 209.446 30.3108 210.774 30.3108C212.073 30.3108 213.152 30.5757 214.012 31.1055C214.872 31.6353 215.516 32.3815 215.943 33.3442C216.376 34.3013 216.593 35.432 216.593 36.7366ZM207.057 36.7366C207.057 37.6993 207.188 38.5339 207.45 39.2402C207.712 39.9409 208.113 40.4821 208.655 40.8638C209.201 41.2397 209.902 41.4277 210.757 41.4277C211.617 41.4277 212.317 41.2397 212.859 40.8638C213.4 40.4821 213.799 39.9409 214.055 39.2402C214.311 38.5339 214.439 37.6993 214.439 36.7366C214.439 35.2725 214.146 34.1275 213.559 33.3015C212.978 32.4698 212.05 32.054 210.774 32.054C209.919 32.054 209.216 32.2419 208.663 32.6179C208.116 32.9939 207.712 33.5322 207.45 34.2329C207.188 34.9279 207.057 35.7625 207.057 36.7366ZM229.085 30.5073V38.5908C229.085 39.4624 228.9 40.2428 228.53 40.9321C228.165 41.6214 227.613 42.1683 226.872 42.5728C226.132 42.9715 225.2 43.1709 224.078 43.1709C222.477 43.1709 221.258 42.7522 220.421 41.9148C219.589 41.0717 219.173 39.9523 219.173 38.5566V30.5073H221.224V38.3772C221.224 39.4197 221.469 40.1887 221.959 40.6843C222.449 41.1799 223.181 41.4277 224.155 41.4277C224.827 41.4277 225.374 41.311 225.796 41.0774C226.223 40.8381 226.536 40.4906 226.736 40.0349C226.941 39.5735 227.043 39.0181 227.043 38.3687V30.5073H229.085ZM242.424 36.634C242.424 38.0411 242.162 39.2174 241.638 40.1631C241.114 41.103 240.353 41.8123 239.356 42.2908C238.36 42.7636 237.158 43 235.75 43H232.281V30.5073H236.126C237.42 30.5073 238.536 30.7409 239.476 31.208C240.416 31.6694 241.142 32.3559 241.655 33.2673C242.168 34.1731 242.424 35.2953 242.424 36.634ZM240.288 36.6938C240.288 35.6685 240.125 34.8254 239.801 34.1646C239.482 33.5037 239.009 33.0138 238.382 32.6948C237.761 32.3701 236.995 32.2078 236.084 32.2078H234.332V41.2825H235.785C237.294 41.2825 238.422 40.8979 239.168 40.1289C239.915 39.3599 240.288 38.2148 240.288 36.6938ZM252.191 43H245.116V30.5073H252.191V32.2334H247.167V35.6257H251.875V37.3433H247.167V41.2654H252.191V43ZM265.316 43H262.795L256.677 33.0281H256.6C256.623 33.3642 256.643 33.7202 256.66 34.0962C256.683 34.4722 256.7 34.8595 256.711 35.2583C256.728 35.6571 256.743 36.0615 256.754 36.4717V43H254.891V30.5073H257.395L263.504 40.4109H263.564C263.553 40.1204 263.539 39.7871 263.521 39.4111C263.504 39.0352 263.487 38.6478 263.47 38.249C263.459 37.8446 263.45 37.4543 263.445 37.0784V30.5073H265.316V43Z" fill="#492C0E"/>
</svg>
